<?xml version="1.0" encoding="UTF-8" standalone="no"?>
<!-- Creator: CorelDRAW 2021 (64-Bit) -->

<svg
   xml:space="preserve"
   width="180px"
   height="180px"
   version="1.1"
   style="shape-rendering:geometricPrecision; text-rendering:geometricPrecision; image-rendering:optimizeQuality; fill-rule:evenodd; clip-rule:evenodd"
   viewBox="0 0 180 180"
   id="svg2238"
   xmlns="http://www.w3.org/2000/svg"
   xmlns:svg="http://www.w3.org/2000/svg">
 <defs
   id="defs2230">
  <style
   type="text/css"
   id="style2228">
   <![CDATA[
    .fil0 {fill:none}
    .fil1 {fill:black}
   ]]>
  </style>
 </defs>
 <g
   id="Layer_x0020_1">
  <metadata
   id="CorelCorpID_0Corel-Layer" />
  <rect
   class="fil0"
   width="180"
   height="180"
   id="rect2233" />
  <path
   class="fil1"
   d="m 89.999988,179.95999 c -49.69,0.06 -90.02000005,-40.27 -89.96000005,-89.96 -0.06,-49.690002 40.27000005,-90.02000205 89.96000005,-89.96000205 49.690002,-0.06 90.030002,40.27000005 89.960002,89.96000205 0.07,49.69 -40.27,90.02 -89.960002,89.96 z m 21.500002,-89.89 -12.920002,12.93 V 56.309988 c 0,-4.71 -3.87,-8.57 -8.58,-8.57 -4.71,0 -8.57,3.86 -8.57,8.57 v 46.690002 l -12.93,-12.93 c -3.33,-3.33 -8.79,-3.33 -12.12,0 -3.33,3.33 -3.34,8.8 0,12.13 l 27.58,27.58 c 0.48,0.48 1.04,0.93 1.66,1.29 l 0.19,0.11 0.4,0.2 0.17,0.09 0.38,0.16 0.4,0.15 0.19,0.06 0.4,0.13 0.41,0.09 0.18,0.04 0.43,0.07 0.2,0.03 0.2,0.02 0.42,0.03 0.41,0.01 0.41,-0.01 0.42,-0.03 0.2,-0.02 0.2,-0.03 0.42,-0.07 0.19,-0.04 0.4,-0.09 0.42,-0.13 0.18,-0.06 0.4,-0.14 0.38,-0.17 0.37,-0.19 0.39,-0.21 c 0.61,-0.36 1.18,-0.8 1.67,-1.3 l 0.16,-0.16 27.420002,-27.41 c 3.33,-3.33 3.33,-8.8 0,-12.13 -3.33,-3.33 -8.8,-3.33 -12.13,0 z m -21.500002,72.82 c -40.25,0.06 -72.95,-32.64 -72.89,-72.89 -0.06,-40.250002 32.64,-72.950002 72.89,-72.890002 40.250002,-0.06 72.950002,32.64 72.890002,72.890002 0.06,40.25 -32.64,72.95 -72.890002,72.89 z"
   id="path2235" />
 </g>
</svg>
